<svg width="93" height="93" viewBox="0 0 93 93" fill="none" xmlns="http://www.w3.org/2000/svg">
<path d="M30.225 7.75H62.775C75.175 7.75 85.25 17.825 85.25 30.225V62.775C85.25 68.7357 82.8821 74.4523 78.6672 78.6672C74.4523 82.8821 68.7357 85.25 62.775 85.25H30.225C17.825 85.25 7.75 75.175 7.75 62.775V30.225C7.75 24.2643 10.1179 18.5477 14.3328 14.3328C18.5477 10.1179 24.2643 7.75 30.225 7.75ZM29.45 15.5C25.7502 15.5 22.202 16.9697 19.5859 19.5859C16.9697 22.202 15.5 25.7502 15.5 29.45V63.55C15.5 71.2612 21.7387 77.5 29.45 77.5H63.55C67.2498 77.5 70.798 76.0303 73.4141 73.4141C76.0303 70.798 77.5 67.2498 77.5 63.55V29.45C77.5 21.7387 71.2612 15.5 63.55 15.5H29.45ZM66.8438 21.3125C68.1284 21.3125 69.3604 21.8228 70.2688 22.7312C71.1772 23.6396 71.6875 24.8716 71.6875 26.1562C71.6875 27.4409 71.1772 28.6729 70.2688 29.5813C69.3604 30.4897 68.1284 31 66.8438 31C65.5591 31 64.3271 30.4897 63.4187 29.5813C62.5103 28.6729 62 27.4409 62 26.1562C62 24.8716 62.5103 23.6396 63.4187 22.7312C64.3271 21.8228 65.5591 21.3125 66.8438 21.3125ZM46.5 27.125C51.6386 27.125 56.5667 29.1663 60.2002 32.7998C63.8337 36.4333 65.875 41.3614 65.875 46.5C65.875 51.6386 63.8337 56.5667 60.2002 60.2002C56.5667 63.8337 51.6386 65.875 46.5 65.875C41.3614 65.875 36.4333 63.8337 32.7998 60.2002C29.1663 56.5667 27.125 51.6386 27.125 46.5C27.125 41.3614 29.1663 36.4333 32.7998 32.7998C36.4333 29.1663 41.3614 27.125 46.5 27.125ZM46.5 34.875C43.4169 34.875 40.46 36.0998 38.2799 38.2799C36.0998 40.46 34.875 43.4169 34.875 46.5C34.875 49.5831 36.0998 52.54 38.2799 54.7201C40.46 56.9002 43.4169 58.125 46.5 58.125C49.5831 58.125 52.54 56.9002 54.7201 54.7201C56.9002 52.54 58.125 49.5831 58.125 46.5C58.125 43.4169 56.9002 40.46 54.7201 38.2799C52.54 36.0998 49.5831 34.875 46.5 34.875Z" fill="#F8F8F8"/>
</svg>
