<svg width="93" height="93" viewBox="0 0 93 93" fill="none" xmlns="http://www.w3.org/2000/svg">
<path d="M80.9875 7.75H12.0125C10.882 7.75 9.79783 8.19908 8.99846 8.99846C8.19908 9.79783 7.75 10.882 7.75 12.0125V80.9875C7.75 82.118 8.19908 83.2022 8.99846 84.0015C9.79783 84.8009 10.882 85.25 12.0125 85.25H49.135V55.2188H39.06V43.5938H49.135V34.875C48.9263 32.8281 49.168 30.7602 49.843 28.8166C50.5181 26.8729 51.6102 25.1005 53.0428 23.6236C54.4754 22.1467 56.2137 21.0011 58.1359 20.2672C60.0582 19.5332 62.1176 19.2287 64.17 19.375C67.186 19.3564 70.2006 19.5117 73.1987 19.84V30.3025H67.0375C62.155 30.3025 61.225 32.6275 61.225 35.9988V43.4775H72.85L71.3387 55.1025H61.225V85.25H80.9875C81.5473 85.25 82.1015 85.1397 82.6187 84.9255C83.1358 84.7113 83.6057 84.3974 84.0015 84.0015C84.3974 83.6057 84.7113 83.1358 84.9255 82.6187C85.1397 82.1015 85.25 81.5473 85.25 80.9875V12.0125C85.25 11.4527 85.1397 10.8985 84.9255 10.3813C84.7113 9.86416 84.3974 9.39427 84.0015 8.99846C83.6057 8.60265 83.1358 8.28867 82.6187 8.07446C82.1015 7.86025 81.5473 7.75 80.9875 7.75Z" fill="#F8F8F8"/>
</svg>
